<svg width="512" height="512" viewBox="0 0 512 512" fill="none" xmlns="http://www.w3.org/2000/svg">
  <rect width="512" height="512" rx="48" fill="#2F2A2B"/>
  <g transform="translate(84 124)">
    <path d="M0 22C0 9.85 9.85 0 22 0H58C96.66 0 124 25.55 124 62C124 98.45 96.66 124 58 124H22C9.85 124 0 114.15 0 102V22ZM45 37V87H58C72.98 87 83 76.69 83 62C83 47.31 72.98 37 58 37H45Z" fill="#B88DFF"/>
    <path d="M144 0H189V124H144V0Z" fill="#B88DFF"/>
    <path d="M206 0H252L214 61L255 124H206L178 78V46L206 0Z" fill="#B88DFF"/>
    <path d="M177 46L205 78H178L150 46H177Z" fill="#B88DFF"/>
    <g transform="translate(246 2)">
      <circle cx="38" cy="38" r="34" stroke="#B88DFF" stroke-width="8"/>
      <circle cx="38" cy="38" r="6" fill="#B88DFF"/>
      <circle cx="38" cy="14" r="4" fill="#B88DFF"/>
      <circle cx="38" cy="62" r="4" fill="#B88DFF"/>
      <circle cx="14" cy="38" r="4" fill="#B88DFF"/>
      <circle cx="62" cy="38" r="4" fill="#B88DFF"/>
      <circle cx="21.5" cy="21.5" r="4" fill="#B88DFF"/>
      <circle cx="54.5" cy="21.5" r="4" fill="#B88DFF"/>
      <circle cx="21.5" cy="54.5" r="4" fill="#B88DFF"/>
      <circle cx="54.5" cy="54.5" r="4" fill="#B88DFF"/>
    </g>
    <path d="M0 156H118C144.51 156 164 169.18 164 191C164 209.92 150.49 221.13 129 224.5C154.1 227.58 171 240.51 171 261C171 287.91 147.56 304 112 304H0V264H103C115.35 264 123 260.12 123 252C123 243.88 115.35 240 103 240H0V220H98C109.12 220 116 216.71 116 209C116 201.29 109.12 198 98 198H0V156Z" fill="white"/>
    <path d="M186 156H302V198H231V212H297V248H231V262H302V304H186V156Z" fill="white"/>
    <path d="M318 156H363V304H318V156Z" fill="white"/>
    <path d="M382 156H430C470.86 156 500 186.42 500 230C500 273.58 470.86 304 430 304H382V156ZM427 198V262H430C445.06 262 455 249.16 455 230C455 210.84 445.06 198 430 198H427Z" fill="white"/>
    <rect x="127" y="336" width="104" height="10" rx="5" fill="white" fill-opacity="0.82"/>
    <text x="240" y="348" fill="white" font-family="Trebuchet MS, Arial, sans-serif" font-size="34" font-weight="700" letter-spacing="9">PANABO</text>
  </g>
</svg>
