<svg width="1024" height="1024" viewBox="0 0 1024 1024" fill="none" xmlns="http://www.w3.org/2000/svg">
  <rect width="1024" height="1024" rx="220" fill="#2F2A2B"/>
  <rect x="72" y="72" width="880" height="880" rx="184" fill="url(#panel)" stroke="rgba(255,255,255,0.08)"/>
  <path d="M232 310C232 280.177 256.177 256 286 256H418C518.516 256 590 322.078 590 416C590 509.922 518.516 576 418 576H286C256.177 576 232 551.823 232 522V310ZM348 356V476H411C450.58 476 476 451.857 476 416C476 380.143 450.58 356 411 356H348Z" fill="#B694F1"/>
  <path d="M638 256H786C863.65 256 920 302.475 920 372C920 425.104 887.374 458.729 830 470.5C897.655 480.404 944 520.301 944 585C944 663.461 874.316 720 772 720H626C596.177 720 572 695.823 572 666V630H688V640H766C808.504 640 835 621.748 835 592C835 562.252 808.504 544 766 544H638V464H750C787.076 464 810 447.66 810 420C810 392.34 787.076 376 750 376H638V256Z" fill="#F6F4F7"/>
  <rect x="228" y="676" width="568" height="22" rx="11" fill="#F6F4F7" fill-opacity="0.92"/>
  <text x="512" y="790" text-anchor="middle" fill="#F6F4F7" font-family="Trebuchet MS, Arial, sans-serif" font-size="108" font-weight="700" letter-spacing="22">PANABO</text>
  <defs>
    <linearGradient id="panel" x1="160" y1="112" x2="884" y2="912" gradientUnits="userSpaceOnUse">
      <stop stop-color="#3F2462"/>
      <stop offset="1" stop-color="#53307A"/>
    </linearGradient>
  </defs>
</svg>
